<?xml version="1.0" encoding="UTF-8"?>
<svg width="44px" height="44px" viewBox="0 0 44 44" version="1.1" xmlns="http://www.w3.org/2000/svg" xmlns:xlink="http://www.w3.org/1999/xlink">
    <!-- Generator: Sketch 53.2 (72643) - https://sketchapp.com -->
    <title>insta</title>
    <desc>Created with Sketch.</desc>
    <g id="Symbols" stroke="none" stroke-width="1" fill="none" fill-rule="evenodd">
        <g id="Desktop-HD/Common/Footer" transform="translate(-1189.000000, -77.000000)">
            <g id="Desktop-HD-Footer">
                <g id="social-media" transform="translate(1083.000000, 42.000000)">
                    <g id="insta" transform="translate(105.000000, 34.000000)">
                        <path d="M23,0.999994 C35.150302,0.999994 44.99996,10.849698 44.99996,23 C44.99996,35.150348 35.150302,45.000052 23,45.000052 C10.849744,45.000052 0.999994,35.150348 0.999994,23 C0.999994,10.849698 10.849744,0.999994 23,0.999994 Z" id="stroke" fill="#880D1E"></path>
                        <path d="M27.032512,13.0001 C29.771622,13.0001 32.000046,15.22838 31.999958,17.96738 L31.999958,26.03244 C31.999958,28.77144 29.771622,30.99972 27.032512,30.99972 L18.96718,30.99972 C16.228246,30.99972 13.999976,28.77144 13.999976,26.03244 L13.999976,17.96738 C13.999976,15.22838 16.228246,13.0001 18.96718,13.0001 L27.032512,13.0001 Z M30.403,26.03244 L30.402912,26.03244 L30.402912,17.96738 C30.402912,16.10898 28.890918,14.5968 27.032512,14.5968 L18.96718,14.5968 C17.108862,14.5968 15.597044,16.10898 15.597044,17.96738 L15.597044,26.03244 C15.597044,27.89084 17.108862,29.40302 18.96718,29.40302 L27.0326,29.40302 C28.891006,29.40302 30.403,27.89084 30.403,26.03244 Z M22.999934,17.36182 C25.557434,17.36182 27.638062,19.4426 27.638062,22.00014 C27.638062,24.5577 25.557434,26.638 22.999934,26.638 C20.442434,26.638 18.361806,24.5577 18.361806,22.00014 C18.361806,19.4426 20.442434,17.36182 22.999934,17.36182 Z M22.999934,25.04066 C24.67673,25.04066 26.040994,23.67664 26.040994,22.00014 C26.040994,20.32318 24.676818,18.95916 22.999934,18.95916 C21.32305,18.95916 19.958874,20.32318 19.958874,22.00014 C19.958874,23.67664 21.323138,25.04066 22.999934,25.04066 Z M27.83263,16.00762 C28.141356,16.00762 28.443746,16.13212 28.660886,16.35054 C28.87917,16.56798 29.0038,16.86998 29.0038,17.17894 C29.0038,17.4868 28.87917,17.78878 28.660886,18.0072 C28.442712,18.22464 28.141356,18.3501 27.83263,18.3501 C27.524938,18.3501 27.222548,18.22464 27.005298,18.0072 C26.787036,17.78878 26.66146,17.4868 26.66146,17.17894 C26.66146,16.86998 26.786948,16.56798 27.005298,16.35054 C27.222636,16.13212 27.524938,16.00762 27.83263,16.00762 Z" id="Combined-shape-3618" fill="#FFFFFF"></path>
                    </g>
                </g>
            </g>
        </g>
    </g>
</svg>