<svg height="19" viewBox="0 0 35 19" width="35" xmlns="http://www.w3.org/2000/svg"><path d="m93.632154 10.592052-8.034702-8.216382c-.490191-.50117-1.285245-.50117-1.775475 0-.490269.501423-.490269 1.314588 0 1.815482l5.891574 6.025011h-29.458104c-.693342 0-1.255449.575046-1.255449 1.283768 0 .709251.562107 1.283745 1.255449 1.283745h29.458104l-5.89134 6.024758c-.490347.501699-.490347 1.314059 0 1.815758.245154.250309.566397.375866.887757.375866.321243 0 .642525-.125557.88764-.375866l8.034546-8.216382c.490347-.501699.490347-1.314335 0-1.815758z" fill="#880d1e" fill-rule="evenodd" transform="translate(-59 -2)"/></svg>