<svg height="15" viewBox="0 0 27 15" width="27" xmlns="http://www.w3.org/2000/svg"><path d="m1.77783388 7.94886234 6.03264124-6.16602802c.36804681-.37610572.96499185-.37610572 1.33309723 0 .36810537.37629558.36810537.98653963 0 1.36243822l-4.42356015 4.52150188h22.1178593c.5205773 0 .9426203.43154636.9426203.96341059 0 .53226123-.422043.96339334-.9426203.96339334h-22.1178593l4.42335517 4.52131205c.36816394.3765027.36816394.9861426 0 1.3626453-.18403804.1878457-.42526405.2820707-.66654861.2820707-.24119672 0-.48242272-.094225-.66646077-.2820707l-6.03252411-6.16602801c-.36816394-.37650271-.36816394-.98634977 0-1.36264535z" fill="#cfcfcf" fill-rule="evenodd" transform="translate(-1 -1)"/></svg>