<svg height="86" viewBox="0 0 86 86" width="86" xmlns="http://www.w3.org/2000/svg"><g fill="none" fill-rule="evenodd" transform="translate(-2 -1)"><path d="m45 1.000093c23.74821 0 43.00002 19.251679 43.00002 43.000083 0 23.747781-19.25181 43.000172-43.00002 43.000172-23.7483 0-43.00002-19.252391-43.00002-43.000172 0-23.748404 19.25172-43.000083 43.00002-43.000083z" fill="#f1f1f1"/><path d="m65.515405 37.21462c.323055.154632.484605.61982.484605 1.085722 0 .463828-.16155.774452-.484605 1.084362l-2.261565 2.17005c-.646155.619106-1.61532.619106-2.261565 0-4.03839-3.874912-9.692235-6.354872-15.992235-6.354872-6.300045 0-11.95389 2.47996-15.99228 6.354872-.646245.619106-1.615455.619106-2.261565 0l-2.261565-2.17005c-.323055-.30991-.484695-.620534-.484695-1.084362 0-.465902.16164-.775098.484695-1.085722 5.16924-5.115232 12.438405-8.215012 20.51541-8.215012 8.07696 0 15.184575 3.09978 20.515365 8.215012zm-20.515365 4.184142c4.52304 0 8.400015 1.706222 11.3076 4.496092.646245.61982.646245 1.54955 0 2.17005l-2.261565 2.16869c-.64602.6205-1.61532.6205-2.26143 0-1.77696-1.54887-4.200075-2.633878-6.784605-2.633878-2.58462 0-5.00769.93041-6.78465 2.633878-.64611.6205-1.61541.6205-2.261565 0l-2.26152-2.16937c-.646155-.61982-.646155-1.54955 0-2.16937 2.907675-2.78987 6.78465-4.496092 11.307735-4.496092zm0 12.401194c1.78425 0 3.230775 1.38737 3.230775 3.0991 0 1.712444-1.446525 3.100494-3.230775 3.100494-1.78434 0-3.23082-1.38805-3.23082-3.100494 0-1.71173 1.44648-3.0991 3.23082-3.0991z" fill="#880d1e"/></g></svg>