<svg height="44" viewBox="0 0 44 44" width="44" xmlns="http://www.w3.org/2000/svg"><g fill="none" fill-rule="evenodd" transform="translate(-1 -1)"><path d="m23 .999994c12.150256 0 22.000006 9.849704 22.000006 22.000006 0 12.150348-9.84975 22.000052-22.000006 22.000052-12.150302 0-21.99996-9.849704-21.99996-22.000052 0-12.150302 9.849658-22.000006 21.99996-22.000006z" fill="#880d1e"/><path d="m20.729166 17.48632v2.47826h-1.729145v3.0302h1.729145v9.00512h3.552098v-9.00512h2.383524s.223245-1.45316.331474-3.04146h-2.701611v-2.07206c0-.30976.387277-.72642.770077-.72642h1.935307v-3.15472h-2.631398c-3.727284 0-3.639471 3.03322-3.639471 3.4862z" fill="#fff"/></g></svg>