<svg height="512" viewBox="0 0 496 496" width="512" xmlns="http://www.w3.org/2000/svg"><g fill="#880d1e"><path d="m320 176c-4.414062 0-8-3.585938-8-8h-16c0 10.414062 6.710938 19.214844 16 22.527344v9.472656h16v-9.472656c9.289062-3.3125 16-12.113282 16-22.527344 0-13.230469-10.769531-24-24-24-4.414062 0-8-3.585938-8-8s3.585938-8 8-8 8 3.585938 8 8h16c0-10.414062-6.710938-19.214844-16-22.527344v-9.472656h-16v9.472656c-9.289062 3.3125-16 12.113282-16 22.527344 0 13.230469 10.769531 24 24 24 4.414062 0 8 3.585938 8 8s-3.585938 8-8 8zm0 0"/><path d="m320 224c39.703125 0 72-32.296875 72-72s-32.296875-72-72-72-72 32.296875-72 72 32.296875 72 72 72zm0-128c30.871094 0 56 25.128906 56 56s-25.128906 56-56 56-56-25.128906-56-56 25.128906-56 56-56zm0 0"/><path d="m496 48h-112v-48h-299.3125l-84.6875 84.6875v411.3125h384v-240h112zm-416-20.6875v52.6875h-52.6875zm288 452.6875h-352v-384h80v-80h272v32h-224v64h-96v176h288v-32h32zm-48-224v16h-256v-144h80v128zm160-16h-320v-176h320zm0 0"/><path d="m192 96h24v-16h-40v40h16zm0 0"/><path d="m216 208h-24v-24h-16v40h40zm0 0"/><path d="m448 120h16v-40h-40v16h24zm0 0"/><path d="m464 184h-16v24h-24v16h40zm0 0"/><path d="m72 352c4.414062 0 8 3.585938 8 8h16c0-10.414062-6.710938-19.214844-16-22.527344v-9.472656h-16v9.472656c-9.289062 3.3125-16 12.113282-16 22.527344 0 13.230469 10.769531 24 24 24 4.414062 0 8 3.585938 8 8s-3.585938 8-8 8-8-3.585938-8-8h-16c0 10.414062 6.710938 19.214844 16 22.527344v9.472656h16v-9.472656c9.289062-3.3125 16-12.113282 16-22.527344 0-13.230469-10.769531-24-24-24-4.414062 0-8-3.585938-8-8s3.585938-8 8-8zm0 0"/><path d="m112 304h112v16h-112zm0 0"/><path d="m240 304h96v16h-96zm0 0"/><path d="m112 336h112v16h-112zm0 0"/><path d="m240 336h96v16h-96zm0 0"/><path d="m112 368h16v16h-16zm0 0"/><path d="m144 368h16v16h-16zm0 0"/><path d="m176 368h16v16h-16zm0 0"/><path d="m112 432h16v16h-16zm0 0"/><path d="m144 432h16v16h-16zm0 0"/><path d="m176 432h16v16h-16zm0 0"/><path d="m208 432h128v16h-128zm0 0"/><path d="m208 368h128v16h-128zm0 0"/><path d="m112 400h224v16h-224zm0 0"/></g></svg>