<svg enable-background="new 0 0 273.555 273.555" height="512" viewBox="0 0 273.555 273.555" width="512" xmlns="http://www.w3.org/2000/svg"><path d="m136.571.004c-.53.022-1.052.128-1.549.315l-79.41 29.779c-2.579.582-4.259 3.072-3.834 5.682v15.107c-5.796 2.082-10 7.641-10 14.113 0 6.473 4.204 12.032 10 14.113v15.887c-.039 2.761 2.168 5.032 4.929 5.071s5.032-2.168 5.071-4.929c.001-.047.001-.094 0-.141v-15.887c5.797-2.081 10-7.64 10-14.113s-4.203-12.032-10-14.113v-8.672l20 7.5v35.284c.001 2.762 2.241 5 5.002 4.999 1.325 0 2.596-.527 3.533-1.463 3.232-3.232 12.298-6.035 21.465-6.035s18.233 2.803 21.465 6.035c1.953 1.952 5.118 1.952 7.07 0 3.232-3.232 12.298-6.035 21.465-6.035s18.233 2.803 21.465 6.035c1.954 1.952 5.12 1.951 7.072-.003.937-.937 1.463-2.208 1.463-3.533v-35.285l26.756-10.033c2.586-.97 3.895-3.853 2.924-6.439-.507-1.351-1.573-2.417-2.924-2.924l-80-30c-.627-.235-1.294-.342-1.963-.315zm.207 10.336 65.76 24.66-65.76 24.658-65.76-24.658zm0 19.66c-2.761 0-5 2.239-5 5s2.239 5 5 5 5-2.239 5-5-2.239-5-5-5zm-45 23.465 43.244 16.217c1.132.425 2.38.425 3.512 0l43.244-16.217v22.65c-5.962-2.52-12.944-3.615-20-3.615-9.121 0-18.283 1.594-25 6.125-6.717-4.531-15.879-6.125-25-6.125-7.055 0-14.038 1.096-20 3.615zm-35 6.535c2.821 0 5 2.179 5 5s-2.179 5-5 5-5-2.179-5-5c0-2.82 2.179-5 5-5zm128.358 34.678c-2.759.131-4.888 2.474-4.757 5.233.008.165.024.33.048.494 2.438 18.308-5.449 36.39-19.953 46.25-14.504 9.861-32.872 9.863-47.379.01-14.507-9.856-22.398-27.935-19.965-46.244.352-2.739-1.583-5.245-4.322-5.598-2.723-.35-5.22 1.561-5.592 4.281-2.918 21.951 6.466 43.743 24.26 55.832 2.02 1.372 4.11 2.582 6.25 3.643 2.382 8.317-.072 13.815-6.01 18.682-6.406 5.25-17.588 8.856-30.656 9.434-14.819.655-26.219 5.706-33.811 13.443s-11.241 17.948-11.471 28.264v.111 35h-15c-2.761-.039-5.032 2.168-5.071 4.929s2.168 5.032 4.929 5.071c.047.001.094.001.141 0h141.861l.086.043.021-.043h19.893l.086.043.021-.043h78.031c2.761.039 5.032-2.168 5.071-4.929s-2.168-5.032-4.929-5.071c-.047-.001-.094-.001-.141 0h-15v-35c0-.037 0-.074 0-.111-.23-10.316-3.877-20.526-11.469-28.264s-18.992-12.788-33.811-13.443c-13.068-.578-24.25-4.183-30.656-9.434-5.938-4.867-8.391-10.365-6.008-18.684 2.144-1.063 4.238-2.275 6.262-3.65 17.79-12.094 27.167-33.89 24.244-55.84-.309-2.607-2.581-4.531-5.203-4.406zm-60.786 67.797c8.167 2.021 16.689 2.023 24.855 0-.359 9.016 3.602 17.032 10.295 22.518 6.909 5.663 16.297 9.168 26.941 10.766l-33.875 67.752h-11.021c-.651-2.087-2.582-3.509-4.768-3.512-2.187.001-4.12 1.423-4.771 3.512h-90.228v-34.908c.186-8.13 2.968-15.715 8.609-21.465 5.646-5.755 14.29-9.888 27.113-10.455 14.574-.644 27.628-4.373 36.555-11.69 6.693-5.486 10.655-13.503 10.295-22.52zm72.778 34.277c2.981.182 5.734.557 8.266 1.107l-32.826 65.652h-8.82zm-60.35 3.248c-2.761 0-5 2.239-5 5s2.239 5 5 5 5-2.239 5-5-2.239-5-5-5zm78.141 1.168c3.271 1.654 6.003 3.68 8.25 5.971 5.646 5.755 8.428 13.346 8.609 21.484v34.889h-48.031zm-78.141 18.832c-2.761 0-5 2.239-5 5s2.239 5 5 5 5-2.239 5-5-2.239-5-5-5zm0 20c-2.761 0-5 2.239-5 5s2.239 5 5 5 5-2.239 5-5-2.239-5-5-5z" fill="#880d1e"/></svg>