<svg height="19" viewBox="0 0 35 19" width="35" xmlns="http://www.w3.org/2000/svg"><path d="m1191.63208 10.59196-8.03467-8.216382c-.49019-.500894-1.28524-.500894-1.77551 0-.49027.501446-.49027 1.314611 0 1.815758l5.89157 6.024758h-29.45802c-.69335 0-1.25545.575046-1.25545 1.283745 0 .709251.5621 1.283745 1.25545 1.283745h29.45802l-5.8913 6.025034c-.49035.501423-.49035 1.314059 0 1.815482.24512.250585.5664.376142.88772.376142.32128 0 .64253-.125557.88768-.376142l8.03451-8.216382c.49034-.501423.49034-1.314059 0-1.815758z" fill="#fff" fill-rule="evenodd" transform="translate(-1157 -2)"/></svg>