<?xml version="1.0" encoding="UTF-8"?>
<svg width="44px" height="44px" viewBox="0 0 44 44" version="1.1" xmlns="http://www.w3.org/2000/svg" xmlns:xlink="http://www.w3.org/1999/xlink">
    <!-- Generator: Sketch 53.2 (72643) - https://sketchapp.com -->
    <title>youtube</title>
    <desc>Created with Sketch.</desc>
    <g id="Symbols" stroke="none" stroke-width="1" fill="none" fill-rule="evenodd">
        <g id="Desktop-HD/Common/Footer" transform="translate(-1247.000000, -77.000000)">
            <g id="Desktop-HD-Footer">
                <g id="social-media" transform="translate(1083.000000, 42.000000)">
                    <g id="youtube" transform="translate(163.000000, 34.000000)">
                        <path d="M23,0.999994 C35.150302,0.999994 44.99996,10.849698 44.99996,23 C44.99996,35.150348 35.150302,45.000052 23,45.000052 C10.849744,45.000052 0.999994,35.150348 0.999994,23 C0.999994,10.849698 10.849744,0.999994 23,0.999994 Z" id="stroke" fill="#880D1E"></path>
                        <path d="M33.18152,16.287556 C33.943016,17.205898 33.999992,18.613228 33.999992,20.654842 L33.999992,24.345166 C33.999992,26.684626 33.636416,28.035976 32.784296,28.863436 C31.953368,29.670592 30.668984,29.999704 28.351136,29.999704 L18.648752,29.999704 C13.873568,29.999704 12.999968,28.095448 12.999968,24.345166 L12.999968,20.654842 C12.999968,18.719032 12.999968,17.320108 13.736312,16.37068 C14.491448,15.397132 15.914696,14.999674 18.648752,14.999674 L28.35104,14.999674 C31.023896,14.999674 32.423456,15.37303 33.18152,16.287556 Z M26.482088,23.00953 C26.70584,22.890568 26.846096,22.655362 26.84576,22.399042 C26.8454,22.14274 26.70464,21.907678 26.480552,21.78967 L22.07468,19.467814 C21.864824,19.357096 21.613088,19.365502 21.410768,19.490332 C21.208472,19.614838 21.085064,19.837678 21.085064,20.077654 L21.085064,24.737242 C21.085064,24.977686 21.208832,25.200544 21.411464,25.32505 C21.519176,25.391506 21.640712,25.424338 21.762512,25.424338 C21.870056,25.424338 21.977768,25.398796 22.076312,25.346146 L26.482088,23.00953 Z" id="Combined-shape-3615" fill="#FFFFFF"></path>
                    </g>
                </g>
            </g>
        </g>
    </g>
</svg>