<svg enable-background="new 0 0 60 60" height="512" viewBox="0 0 60 60" width="512" xmlns="http://www.w3.org/2000/svg"><g fill="#880d1e"><path d="m38.914 0h-32.414v60h47v-45.414zm.586 3.414 10.586 10.586h-10.586zm-31 54.586v-56h29v14h14v42z"/><path d="m42.5 21h-16c-.552 0-1 .447-1 1s.448 1 1 1h16c.552 0 1-.447 1-1s-.448-1-1-1z"/><path d="m22.875 18.219-4.301 3.441-1.367-1.367c-.391-.391-1.023-.391-1.414 0s-.391 1.023 0 1.414l2 2c.194.194.45.293.707.293.22 0 .441-.072.624-.219l5-4c.432-.346.501-.975.156-1.406-.344-.432-.974-.501-1.405-.156z"/><path d="m42.5 32h-16c-.552 0-1 .447-1 1s.448 1 1 1h16c.552 0 1-.447 1-1s-.448-1-1-1z"/><path d="m22.875 29.219-4.301 3.441-1.367-1.367c-.391-.391-1.023-.391-1.414 0s-.391 1.023 0 1.414l2 2c.194.194.45.293.707.293.22 0 .441-.072.624-.219l5-4c.432-.346.501-.975.156-1.406-.344-.432-.974-.501-1.405-.156z"/><path d="m42.5 43h-16c-.552 0-1 .447-1 1s.448 1 1 1h16c.552 0 1-.447 1-1s-.448-1-1-1z"/><path d="m22.875 40.219-4.301 3.441-1.367-1.367c-.391-.391-1.023-.391-1.414 0s-.391 1.023 0 1.414l2 2c.194.194.45.293.707.293.22 0 .441-.072.624-.219l5-4c.432-.346.501-.975.156-1.406-.344-.432-.974-.501-1.405-.156z"/></g></svg>