<svg height="44" viewBox="0 0 44 44" width="44" xmlns="http://www.w3.org/2000/svg"><g fill="none" fill-rule="evenodd" transform="translate(-1 -1)"><path d="m23 .999994c12.150302 0 21.99996 9.849704 21.99996 22.000006 0 12.150348-9.849658 22.000052-21.99996 22.000052-12.150256 0-22.000006-9.849704-22.000006-22.000052 0-12.150302 9.84975-22.000006 22.000006-22.000006z" fill="#880d1e"/><path d="m27.032512 13.0001c2.73911 0 4.967534 2.22828 4.967446 4.96728v8.06506c0 2.739-2.228336 4.96728-4.967446 4.96728h-8.065332c-2.738934 0-4.967204-2.22828-4.967204-4.96728v-8.06506c0-2.739 2.22827-4.96728 4.967204-4.96728zm3.370488 13.03234h-.000088v-8.06506c0-1.8584-1.511994-3.37058-3.3704-3.37058h-8.065332c-1.858318 0-3.370136 1.51218-3.370136 3.37058v8.06506c0 1.8584 1.511818 3.37058 3.370136 3.37058h8.06542c1.858406 0 3.3704-1.51218 3.3704-3.37058zm-7.403066-8.67062c2.5575 0 4.638128 2.08078 4.638128 4.63832 0 2.55756-2.080628 4.63786-4.638128 4.63786s-4.638128-2.0803-4.638128-4.63786c0-2.55754 2.080628-4.63832 4.638128-4.63832zm0 7.67884c1.676796 0 3.04106-1.36402 3.04106-3.04052 0-1.67696-1.364176-3.04098-3.04106-3.04098s-3.04106 1.36402-3.04106 3.04098c0 1.6765 1.364264 3.04052 3.04106 3.04052zm4.832696-9.03304c.308726 0 .611116.1245.828256.34292.218284.21744.342914.51944.342914.8284 0 .30786-.12463.60984-.342914.82826-.218174.21744-.51953.3429-.828256.3429-.307692 0-.610082-.12546-.827332-.3429-.218262-.21842-.343838-.5204-.343838-.82826 0-.30896.125488-.61096.343838-.8284.217338-.21842.51964-.34292.827332-.34292z" fill="#fff"/></g></svg>