<svg height="61" viewBox="0 0 61 61" width="61" xmlns="http://www.w3.org/2000/svg"><g fill="none" fill-rule="evenodd" transform="translate(-1 -1)"><path d="m31.5 1.000188c16.844688 0 30.500001 13.655124 30.500001 30.500064 0 16.844436-13.655313 30.49956-30.500001 30.49956s-30.500001-13.655124-30.500001-30.49956c0-16.84494 13.655313-30.500064 30.500001-30.500064z" fill="#880d1e"/><path d="m44.632096 29.592305-8.034704-8.216451c-.490172-.501492-1.285229-.501492-1.775494 0-.490265.501515-.490265 1.314128 0 1.81562l5.891612 6.024827h-21.458107c-.693253 0-1.255438.574586-1.255438 1.283814 0 .708745.562185 1.283814 1.255438 1.283814h21.458107l-5.891333 6.024321c-.490358.501515-.490358 1.314588 0 1.81562.245117.250999.566401.376004.887747.376004.321253 0 .642537-.125005.887747-.376004l8.034425-8.215945c.490358-.501515.490358-1.314611 0-1.81562z" fill="#fff"/></g></svg>