<svg height="16" viewBox="0 0 38 16" width="38" xmlns="http://www.w3.org/2000/svg" xmlns:xlink="http://www.w3.org/1999/xlink"><defs><path id="a" d="m.735852.680085h36.792444v14.960017h-36.792444z"/><mask id="b" fill="#fff"><use fill="#fff" fill-rule="evenodd" xlink:href="#a"/></mask></defs><g fill="none" fill-rule="evenodd"><use fill="#880d1e" xlink:href="#a"/><path d="m10.9237773 8.1657754c0 .78075257-.1460814 1.45989016-.4382487 2.0374332-.2921672.577543-.69917391 1.0213888-1.22103234 1.3315508-.52185844.3101619-1.12088413.4652406-1.79709506.4652406-.67988599 0-1.28166794-.1550787-1.8053639-.4652406-.52369596-.310162-.93162144-.7540078-1.22378866-1.3315508-.29216722-.57754304-.43824864-1.25668063-.43824864-2.0374332v-.32620321c0-.78075256.14516267-1.46078141.43549236-2.04010695.29032969-.57932553.69641766-1.02406262 1.2182761-1.3342246.52185843-.31016198 1.12272163-.46524064 1.80260762-.46524064.67621093 0 1.27707412.15507866 1.80260762.46524064.52553349.31016198.9343777.75489907 1.2265449 1.3342246.2921673.57932554.4382487 1.25935439.4382487 2.04010695zm-1.81363276-.33689839c0-.77718749-.14332517-1.3716557-.4299798-1.78342246-.28665464-.41176677-.69458011-.61764706-1.22378866-.61764706-.53655867 0-.9454029.20498903-1.22654494.61497326-.28114205.40998422-.42171096 1.00534369-.42171096 1.78609626v.33689839c0 .77718749.14332517 1.37343821.4299798 1.78877005.28665463.41533185.69641761.62299465 1.22930122.62299465.52553349 0 .93070271-.2085541 1.21551982-.62566844.2848171-.41711439.42722352-1.01247385.42722352-1.78609626zm6.98904596-3.72192514c.6210851 0 1.1631482.11229834 1.6262057.3368984.4630575.22460005.8176954.53475738 1.0639244.93048128.2462289.3957239.3693416.84669979.3693416 1.35294118 0 .49911123-.1231127.93671826-.3693416 1.31283422-.246229.37611596-.5990294.66666564-1.0584118.87165776-.4593825.20499211-1.0032831.30748663-1.6317183.30748663h-1.3781403v2.67379676h-1.7915825v-7.78609623zm0 3.71122995c.4226319 0 .7368447-.09714698.9426481-.29144385.2058033-.19429687.3087034-.4572176.3087034-.78877006 0-.22460005-.0441-.42958909-.1323015-.61497326-.0882014-.18538417-.2260141-.33422404-.4134421-.44652406-.187428-.11230003-.4226283-.1684492-.7056079-.1684492h-1.3781403v2.31016043zm6.8402069-2.31016043v1.71122995h3.1090847v1.35294117h-3.1090847v1.92513369h3.6603408v1.3957219h-5.4519233v-7.78609623h5.4519233v1.40106952zm10.2745327 6.38502671-3.0374214-4.93048126v4.93048126h-1.7915825v-7.78609623h1.7915825l3.0374214 4.93582888v-4.93582888h1.7860699v7.78609623z" fill="#fff" mask="url(#b)"/></g></svg>