<svg height="44" viewBox="0 0 44 44" width="44" xmlns="http://www.w3.org/2000/svg"><g fill="none" fill-rule="evenodd" transform="translate(-1 -1)"><path d="m23 .999994c12.150302 0 22.000052 9.849704 22.000052 22.000006 0 12.150348-9.84975 22.000052-22.000052 22.000052-12.150256 0-22.000052-9.849704-22.000052-22.000052 0-12.150302 9.849796-22.000006 22.000052-22.000006z" fill="#880d1e"/><path d="m31.503594 16.277252c-.714032.4338-1.504954.748638-2.346344.919296-.67353-.73737-1.632422-1.196856-2.694758-1.196856-2.03984 0-3.693206 1.696626-3.693206 3.787398 0 .296604.032956.585738.095612.862668-3.068692-.157806-5.789696-1.666008-7.611032-3.957426-.317988.558306-.499268 1.209222-.499268 1.90377 0 1.314378.652476 2.473812 1.642278 3.152178-.605286-.020628-1.17425-.191286-1.672506-.475668v.047268c0 1.835244 1.27314 3.36519 2.961596 3.714912-.309254.085644-.635404.13275-.97262.13275-.238524 0-.469172-.025056-.69542-.068832.470184 1.504242 1.833436 2.59974 3.448764 2.631312-1.26324 1.015254-2.856172 1.620342-4.585658 1.620342-.298364 0-.592152-.018252-.881144-.052182 1.634644 1.073934 3.574582 1.70154 5.66071 1.70154 6.792126 0 10.5061-5.771592 10.5061-10.776294l-.012012-.491058c.7238-.531648 1.351064-1.198764 1.845448-1.95786-.662442.301194-1.37313.505332-2.120206.596844.762432-.468846 1.346862-1.212246 1.623666-2.094102z" fill="#fff"/></g></svg>