<svg height="44" viewBox="0 0 44 44" width="44" xmlns="http://www.w3.org/2000/svg"><g fill="none" fill-rule="evenodd" transform="translate(-1 -1)"><path d="m23 .999994c12.150302 0 21.99996 9.849704 21.99996 22.000006 0 12.150348-9.849658 22.000052-21.99996 22.000052-12.150256 0-22.000006-9.849704-22.000006-22.000052 0-12.150302 9.84975-22.000006 22.000006-22.000006z" fill="#880d1e"/><path d="m33.18152 16.287556c.761496.918342.818472 2.325672.818472 4.367286v3.690324c0 2.33946-.363576 3.69081-1.215696 4.51827-.830928.807156-2.115312 1.136268-4.43316 1.136268h-9.702384c-4.775184 0-5.648784-1.904256-5.648784-5.654538v-3.690324c0-1.93581 0-3.334734.736344-4.284162.755136-.973548 2.178384-1.371006 4.91244-1.371006h9.702288c2.672856 0 4.072416.373356 4.83048 1.287882zm-6.699432 6.721974c.223752-.118962.364008-.354168.363672-.610488-.00036-.256302-.14112-.491364-.365208-.609372l-4.405872-2.321856c-.209856-.110718-.461592-.102312-.663912.022518-.202296.124506-.325704.347346-.325704.587322v4.659588c0 .240444.123768.463302.3264.587808.107712.066456.229248.099288.351048.099288.107544 0 .215256-.025542.3138-.078192z" fill="#fff"/></g></svg>